<svg width="257" height="51" viewBox="0 0 257 51" fill="none" xmlns="http://www.w3.org/2000/svg">
<path d="M248.618 2.51405L255.203 9.0865V42.4947L248.618 49.0669H8.95686L2.3719 42.4947V38.0397L3.70985 37.3235V41.9417L9.51093 47.7316H248.064L253.865 41.9417V9.63924L248.064 3.84966H9.51093L3.70985 9.63924V37.3235L2.3719 38.0397V9.0865L8.95686 2.51405H248.618Z" fill="#D6A354"/>
<path d="M254.534 0.956055L252.304 3.18194L254.534 5.40783L256.764 3.18194L254.534 0.956055Z" fill="#D6A354"/>
<path d="M254.534 46.1734L252.304 48.3993L254.534 50.6252L256.764 48.3993L254.534 46.1734Z" fill="#D6A354"/>
<path d="M2.23018 0.956055L0 3.18194L2.23018 5.40783L4.46037 3.18194L2.23018 0.956055Z" fill="#D6A354"/>
<path d="M2.23018 46.1734L0 48.3993L2.23018 50.6252L4.46037 48.3993L2.23018 46.1734Z" fill="#D6A354"/>
</svg>
