<svg width="48" height="48" viewBox="0 0 48 48" fill="none" xmlns="http://www.w3.org/2000/svg">
<path fill-rule="evenodd" clip-rule="evenodd" d="M24 48C37.2548 48 48 37.2548 48 24C48 10.7452 37.2548 0 24 0C10.7452 0 0 10.7452 0 24C0 37.2548 10.7452 48 24 48ZM24 45C35.598 45 45 35.598 45 24C45 12.402 35.598 3 24 3C12.402 3 3 12.402 3 24C3 35.598 12.402 45 24 45Z" fill="#D29C4E"/>
<rect x="13" y="16.75" width="21.5" height="2.25" fill="white"/>
<rect x="13" y="24.75" width="21.5" height="2.25" fill="white"/>
<rect x="13" y="31.75" width="21.5" height="2.25" fill="white"/>
</svg>
